<svg height="512" viewBox="0 0 59 58" width="512" xmlns="http://www.w3.org/2000/svg"><g id="Page-1" fill="none" fill-rule="evenodd"><g id="003---Rainbow" fill-rule="nonzero"><path id="Shape" d="m59 25c.010391 5.7110929-1.9459181 11.2516145-5.54 15.69-8.46 3.31-7.46-7.69-6.6-13.76.09-.63 1.959-1.5 1.959-2.152 0-7.17-7.982-15.111-15.152-15.111s-13.7 5.644-13.7 12.814l1.033 2.819c-1.59-1.43-10.4-1.43-11.99-.01-.00832554-.0964299-.01166332-.1932256-.01-.29 0-13.8071187 11.1928813-25 25-25s25 11.1928813 25 25z" fill="#e64c3c"/><path id="Shape" d="m27.01 36.12-.05.07-8.91 11.81h-11.05c-3.3137085.0165685-6.01343146-2.6562915-6.03-5.97s2.6562915-6.0134315 5.97-6.03c0-.01-.01-.01-.01-.02-.61472812-1.2364948-.93313296-2.5991306-.93-3.98 0-4.9705627 4.0294373-9 9-9s9 4.0294373 9 9c.0016609.0734753-.0016802.1469784-.01.22-.0150195.6707403-.1021882 1.3379159-.26 1.99v.01c1.2480018.3178221 2.3834109.9755286 3.28 1.9z" fill="#bdc3c7"/><path id="Shape" d="m59 49c0 4.9705627-4.0294373 9-9 9h-21c-5.6881462.0033693-10.438544-4.3348936-10.95-10-.03-.33-.05-.66-.05-1-.0091914-5.2919252 3.7582424-9.8372332 8.96-10.81.0117335-.0079537.025904-.0114964.04-.01h.01c0-.02-.01-.04 0-.06-.0082848-.0394323-.0116438-.0797403-.01-.12.0007273-.6192851.0475231-1.2376581.14-1.85.9558434-6.2030512 6.5301821-10.6217293 12.7876643-10.1365515s11.0840829 5.7102992 11.0723357 11.9865515c-.0002759.6768942-.0571406 1.3525806-.17 2.02-.1141589.6741394-.2881808 1.3367613-.52 1.98v.01c1.0819738.038419 2.1485298.2686597 3.15.68 3.3569919 1.3950949 5.5433708 4.6746633 5.54 8.31z" fill="#ecf0f1"/><path id="Shape" d="m35.033 30.056c-.4539828.0015645-.8520562-.302883-.9694404-.7414303s.0753783-.9011415.4694404-1.1265697c1.3600601-.7784347 2.899925-1.1879623 4.467-1.188.5522847 0 1 .4477153 1 1s-.4477153 1-1 1c-1.2176738-.0001371-2.41423.3180483-3.471.923-.1508118.0870564-.321865.1329235-.496.133z" fill="#fff"/><path id="Shape" d="m11 30c-.3787721 0-.7250352-.2140024-.8944272-.5527864-.16939201-.338784-.13283604-.744196.0944272-1.0472136 1.1367241-1.5065178 2.9127513-2.3945314 4.8-2.4.5522847 0 1 .4477153 1 1s-.4477153 1-1 1c-1.2601871-.0049262-2.4478287.5888946-3.2 1.6-.1888544.2518058-.4852427.4-.8.4z" fill="#ecf0f1"/><path id="Shape" d="m34.8 36.61c-.1659906.3394325-.5121694.5533632-.89.55-.1568573.0017042-.3116173-.0361261-.45-.11-1.9432836-.9638749-4.1454181-1.2759609-6.28-.89-.0559789.0115871-.1128603.018279-.17.02-.0083116-.0596196-.0116565-.1198266-.01-.18.0007273-.6192851.0475231-1.2376581.14-1.85 2.46354-.388966 4.9870643-.0010004 7.22 1.11.4929463.2524417.6895211.8555689.44 1.35z" fill="#d1d4d1"/><path id="Shape" d="m50.83 38.02c-.1141589.6741394-.2881808 1.3367613-.52 1.98-1.3462338-.0596326-2.6853447.2260903-3.89.83-.1368422.0672443-.2875357.1014929-.44.1-.3796999.0010063-.7276841-.2116507-.9-.55-.1198267-.2370663-.139677-.5122587-.0551141-.7640682.0845629-.2518094.2664884-.4592412.5051141-.5759318 1.6396368-.8197852 3.4732129-1.1726621 5.3-1.02z" fill="#d1d4d1"/><path id="Shape" d="m10.94 36.36c-.1772223.3003757-.5012565.4833597-.85.48-.18245237-.0014388-.36148777-.0496407-.52-.14-.79492674-.4831514-1.70984779-.7326753-2.64-.72-.30573794-.6216858-.54054857-1.2758011-.7-1.95 1.52107857-.1643656 3.05444133.1689741 4.37.95.2291251.1369809.3939699.3598867.4578305.6190853.0638605.2591985.0214348.5331709-.1178305.7609147z" fill="#95a5a5"/><path id="Shape" d="m23.99 32.22c-.0150195.6707403-.1021882 1.3379159-.26 1.99-.027637-.0018993-.0547206-.0086702-.08-.02-1.6947214-.4718406-3.5107034-.1874096-4.98.78-.1631096.1085068-.3541111.1675437-.55.17-.4403997.0009866-.8296015-.2862564-.9584701-.7073807-.1288687-.4211244.0329363-.8769815.3984701-1.1226193 1.8930739-1.255464 4.2289295-1.6514333 6.43-1.09z" fill="#95a5a5"/><path id="Shape" d="m28 46c-.5522847 0-1-.4477153-1-1s-.4477153-1-1-1-1 .4477153-1 1-.4477153 1-1 1-1-.4477153-1-1c0-1.6568542 1.3431458-3 3-3s3 1.3431458 3 3c0 .5522847-.4477153 1-1 1z" fill="#3f5c6c"/><path id="Shape" d="m40 46c-.5522847 0-1-.4477153-1-1s-.4477153-1-1-1-1 .4477153-1 1-.4477153 1-1 1-1-.4477153-1-1c0-1.6568542 1.3431458-3 3-3s3 1.3431458 3 3c0 .5522847-.4477153 1-1 1z" fill="#3f5c6c"/><path id="Shape" d="m32 52c-1.6568542 0-3-1.3431458-3-3 0-.5522847.4477153-1 1-1s1 .4477153 1 1 .4477153 1 1 1 1-.4477153 1-1 .4477153-1 1-1 1 .4477153 1 1c0 1.6568542-1.3431458 3-3 3z" fill="#35495e"/><path id="Shape" d="m50.91 37.43c.0601645-.4742881.0902247-.9519111.09-1.43.002202-1.7258459-.3696669-3.4316668-1.09-5v-.01c.7263831-1.9132649 1.095824-3.9434954 1.09-5.99.001615-9.0495003-7.0863697-16.51404219-16.1238434-16.98044086-9.0374737-.46639868-16.8562053 6.22884936-17.7861566 15.23044086-.6844754-.1648761-1.385948-.2487843-2.09-.25-.645815-.001562-1.2897916.0688729-1.92.21v-.01c.9796481-11.1927994 10.5956644-19.63164547 21.8209103-19.14964541 11.225246.48200007 20.0824921 9.71406821 20.0990897 20.94964541.0198515 4.4771018-1.4155439 8.8394403-4.09 12.43z" fill="#f0c419"/><path id="Shape" d="m51 25c.005824 2.0465046-.3636169 4.0767351-1.09 5.99-.7147363-1.5558094-1.7547835-2.9402656-3.05-4.06.0920993-.6392293.1388826-1.284171.14-1.93 0-7.1797017-5.8202983-13-13-13s-13 5.8202983-13 13v.3c-1.1111913-.9998475-2.455618-1.704726-3.91-2.05.9299513-9.0015915 8.7486829-15.69683954 17.7861566-15.23044086 9.0374737.46639867 16.1254584 7.93094056 16.1238434 16.98044086z" fill="#2fa8cc"/></g></g></svg>