<svg height="512" viewBox="0 0 58 59" width="512" xmlns="http://www.w3.org/2000/svg"><g id="Page-1" fill="none" fill-rule="evenodd"><g id="008---Full-Moon" fill-rule="nonzero"><path id="Shape" d="m58 30c.0058998 15.496045-12.1800136 28.2546875-27.66 28.96-.44.03-.89.04-1.34.04-14.596585.0014336-26.91761487-10.850155-28.76-25.33-.16087569-1.2166991-.24105089-2.4427117-.24-3.67-.00924107-14.0987011 10.1226608-26.16130646 24.0111824-28.58667806 13.8885215-2.42537159 27.5090841 5.48930825 32.2788176 18.75667806 1.0259415 2.8421974 1.5930334 5.8295565 1.68 8.85.02.32.03.65.03.98z" fill="#95a5a5"/><path id="Shape" d="m46.678 13.322c-.2653486.0007185-.5199469-.1047939-.707-.293-7.5579782-7.49433605-19.132443-9.15421473-28.492-4.086-.3143323.18130388-.7022144.17810086-1.0135097-.00836928-.3112953-.18647013-.4971486-.5269424-.485622-.889631.0115267-.3626886.2186241-.69067249.5411317-.85699972 10.1388897-5.49017101 22.6771145-3.69174172 30.864 4.427.2859079.2859943.3714219.7160366.216678 1.0896546-.1547439.3736179-.5192821.6172591-.923678.6173454z" fill="#d1d4d1"/><path id="Shape" d="m11.322 13.322c-.4043959-.0000863-.7689341-.2437275-.923678-.6173454-.1547439-.373618-.0692299-.8036603.216678-1.0896546.556-.556 1.143-1.092 1.744-1.594.27438-.22900726.6500914-.29423871.9856075-.17112231.3355161.12311641.5798639.41587641.641.76800001.0611361.3521237-.0702275.7101151-.3446075.9391223-.556.463-1.1.959-1.612 1.472-.1870531.1882061-.4416514.2937185-.707.293z" fill="#d1d4d1"/><path id="Shape" d="m20 38c-1.6568542 0-3-1.3431458-3-3 0-.5522847.4477153-1 1-1s1 .4477153 1 1 .4477153 1 1 1 1-.4477153 1-1 .4477153-1 1-1 1 .4477153 1 1c0 1.6568542-1.3431458 3-3 3z" fill="#547580"/><path id="Shape" d="m38 38c-1.6568542 0-3-1.3431458-3-3 0-.5522847.4477153-1 1-1s1 .4477153 1 1 .4477153 1 1 1 1-.4477153 1-1 .4477153-1 1-1 1 .4477153 1 1c0 1.6568542-1.3431458 3-3 3z" fill="#547580"/><path id="Shape" d="m33 40v1c0 2.209139-1.790861 4-4 4s-4-1.790861-4-4v-1z" fill="#802d40"/><g fill="#7f8c8d"><circle id="Oval" cx="41" cy="26" r="2"/><circle id="Oval" cx="21" cy="22" r="5"/><circle id="Oval" cx="45" cy="44" r="3"/><circle id="Oval" cx="12" cy="43" r="2"/><circle id="Oval" cx="36" cy="16" r="3"/><path id="Shape" d="m57.97 29.02c-.8579071.6393755-1.900049.9832472-2.97.98-1.9433091.0010523-3.7111984-1.1239772-4.5332808-2.8848383-.8220825-1.760861-.5494257-3.8385478.6991555-5.3276738 1.2485813-1.4891259 3.2468882-2.1199141 5.1241253-1.6174879 1.0259415 2.8421974 1.5930334 5.8295565 1.68 8.85z"/><path id="Shape" d="m31 56c.0046341 1.023663-.2209273 2.0352717-.66 2.96-.44.03-.89.04-1.34.04-4.1331689.0086704-8.2195266-.8747742-11.98-2.59-.016879-.1359769-.0235643-.2730258-.02-.41 0-3.8659932 3.1340068-7 7-7s7 3.1340068 7 7z"/><path id="Shape" d="m10 29c0 3.3137085-2.6862915 6-6 6-1.36972104.0065659-2.69905013-.4636489-3.76-1.33-.16087569-1.2166991-.24105089-2.4427117-.24-3.67-.00123358-1.9990034.20317565-3.9928311.61-5.95 1.83670315-1.2577248 4.21877283-1.3952001 6.18797249-.3571236s3.20182516 3.081062 3.20202751 5.3071236z"/></g><path id="Shape" d="m31.78 43.88c-1.5524808 1.4934256-4.0075192 1.4934256-5.56 0 .4591108-1.1318453 1.5585842-1.8723476 2.78-1.8723476s2.3208892.7405023 2.78 1.8723476z" fill="#ff5364"/></g></g></svg>