<svg height="512" viewBox="0 0 38 58" width="512" xmlns="http://www.w3.org/2000/svg"><g id="Page-1" fill="none" fill-rule="evenodd"><g id="009---Low-Temperature" fill-rule="nonzero" transform="translate(-1)"><path id="Shape" d="m39 39c-.0006687 5.4208304-2.3157913 10.5834779-6.3631524 14.1896213-4.0473612 3.6061434-9.4418524 5.3126563-14.8268476 4.6903787-3.4984856-.3954725-6.8149814-1.7678156-9.57-3.96-4.88996607-3.8480409-7.58410113-9.8478999-7.2111049-16.0591848.37299624-6.211285 3.76578049-11.8456161 9.0811049-15.0808152.299907-.1886086.5393862-.4593242.69-.78.1307783-.267877.199157-.5619055.2-.86v-12.14c-.000246-.33424012.0197909-.66818719.06-1 .4087708-3.69462 3.0468585-6.75782122 6.64-7.71.7514403-.19290141 1.5241951-.29033571 2.3-.29 2.3941532-.02375971 4.6971692.91682024 6.3901745 2.60982554s2.6335852 3.9960213 2.6098255 6.39017446v12.14c.0084845.6934012.3755476 1.3329235.97 1.69 5.6130857 3.456833 9.0313168 9.5778514 9.03 16.17z" fill="#2fa8cc"/><path id="Shape" d="m29 35c-.0035327 5.3441959-2.2560524 10.4401565-6.205958 14.0399742-3.9499057 3.5998176-9.2324528 5.3710758-14.554042 4.8800258-4.88996607-3.8480409-7.58410113-9.8478999-7.2111049-16.0591848.37299624-6.211285 3.76578049-11.8456161 9.0811049-15.0808152.5583436-.3578085.8942917-.9768589.89-1.64v-12.14c-.001571-4.08721273 2.7491312-7.6631256 6.7-8.71.8558354 1.42160385 1.305471 3.05066825 1.3 4.71v12.14c.0084845.6934012.3755476 1.3329235.97 1.69 5.6133752 3.4565555 9.0317048 9.5777504 9.03 16.17z" fill="#67b9cc"/><g fill="#2980ba"><path id="Shape" d="m16 9c0 .55228475-.4477153 1-1 1h-4.0000022l.0000022-1c-.000246-.33424012.0197909-.66818719.06-1h3.94c.5522847 0 1 .44771525 1 1z"/><path id="Shape" d="m14 13c0 .5522847-.4477153 1-1 1h-2v-2h2c.5522847 0 1 .4477153 1 1z"/><path id="Shape" d="m16 17c0 .5522847-.4477153 1-1 1h-4v-2h4c.5522847 0 1 .4477153 1 1z"/><path id="Shape" d="m14 21c0 .5522847-.4477153 1-1 1h-2.2c.1307783-.267877.199157-.5619055.2-.86v-1.14h2c.5522847 0 1 .4477153 1 1z"/></g><path id="Shape" d="m35 39c-.0027597 8.2831279-6.7168721 14.9972403-15 15-1.5943592.004643-3.1786978-.2520941-4.69-.76 5.6136968-1.6343867 10.1622997-5.7623457 12.3320548-11.1916159s1.7190077-11.5551709-1.2220548-16.6083841c5.2376255 2.4849635 8.577129 7.7627803 8.58 13.56z" fill="#c03a2b"/><path id="Shape" d="m29 35c.0037141 8.4488935-5.5763671 15.883567-13.69 18.24-5.31333887-1.7360076-9.22063133-6.2824404-10.13804628-11.7963902-.91741496-5.5139498 1.3072517-11.0806224 5.77222558-14.4435528 4.4649739-3.3629303 10.4294917-3.9641901 15.4758207-1.560057 1.6948194 2.9005432 2.5854219 6.200605 2.58 9.56z" fill="#e64c3c"/><path id="Shape" d="m25 10c-.5522847 0-1-.44771525-1-1 0-3.955-3.837-4-4-4-.5522847 0-1-.44771525-1-1s.4477153-1 1-1c1.6092265-.06100595 3.1710529.55152237 4.3097653 1.69023471 1.1387123 1.13871235 1.7512407 2.7005388 1.6902347 4.30976529 0 .55228475-.4477153 1-1 1z" fill="#9fc9d3"/><circle id="Oval" cx="12" cy="37" fill="#3f5c6c" r="3"/><circle id="Oval" cx="28" cy="37" fill="#3f5c6c" r="3"/><path id="Shape" d="m23 45c-.5522847 0-1-.4477153-1-1 0-1.1045695-.8954305-2-2-2s-2 .8954305-2 2c0 .5522847-.4477153 1-1 1s-1-.4477153-1-1c0-2.209139 1.790861-4 4-4s4 1.790861 4 4c0 .5522847-.4477153 1-1 1z" fill="#35495e"/><circle id="Oval" cx="11" cy="36" fill="#ecf0f1" r="1"/><circle id="Oval" cx="27" cy="36" fill="#ecf0f1" r="1"/></g></g></svg>