<svg height="512" viewBox="0 0 38 58" width="512" xmlns="http://www.w3.org/2000/svg"><g id="Page-1" fill="none" fill-rule="evenodd"><g id="010---High-Temperature" fill-rule="nonzero" transform="translate(-1)"><path id="Shape" d="m39 39c-.0006687 5.4208304-2.3157913 10.5834779-6.3631524 14.1896213-4.0473612 3.6061434-9.4418524 5.3126563-14.8268476 4.6903787-3.4984856-.3954725-6.8149814-1.7678156-9.57-3.96-4.88996607-3.8480409-7.58410113-9.8478999-7.2111049-16.0591848.37299624-6.211285 3.76578049-11.8456161 9.0811049-15.0808152.299907-.1886086.5393862-.4593242.69-.78.1307783-.267877.199157-.5619055.2-.86v-12.14c-.000246-.33424012.0197909-.66818719.06-1 .4087708-3.69462 3.0468585-6.75782122 6.64-7.71.7514403-.19290141 1.5241951-.29033571 2.3-.29 2.3941532-.02375971 4.6971692.91682024 6.3901745 2.60982554s2.6335852 3.9960213 2.6098255 6.39017446v12.14c.0084845.6934012.3755476 1.3329235.97 1.69 5.6130857 3.456833 9.0313168 9.5778514 9.03 16.17z" fill="#2fa8cc"/><path id="Shape" d="m29 35c.0037141 8.4488935-5.5763671 15.883567-13.69 18.24-.01 0-.01 0-.02.01-2.2879529.6594601-4.6787833.8866737-7.05.67-4.88996607-3.8480409-7.58410113-9.8478999-7.2111049-16.0591848.37299624-6.211285 3.76578049-11.8456161 9.0811049-15.0808152.5583436-.3578085.8942917-.9768589.89-1.64v-12.14c-.001571-4.08721273 2.7491312-7.6631256 6.7-8.71.8558354 1.42160385 1.305471 3.05066825 1.3 4.71v12.14c.0084845.6934012.3755476 1.3329235.97 1.69 5.6133752 3.4565555 9.0317048 9.5777504 9.03 16.17z" fill="#67b9cc"/><path id="Shape" d="m25 10c-.5522847 0-1-.44771525-1-1 0-3.955-3.837-4-4-4-.5522847 0-1-.44771525-1-1s.4477153-1 1-1c1.6092265-.06100595 3.1710529.55152237 4.3097653 1.69023471 1.1387123 1.13871235 1.7512407 2.7005388 1.6902347 4.30976529 0 .55228475-.4477153 1-1 1z" fill="#9fc9d3"/><path id="Shape" d="m35 39c.0031872 3.9792236-1.5761419 7.7963844-4.3898788 10.6101212-2.8137368 2.8137369-6.6308976 4.393066-10.6101212 4.3898788-.5848052.0015824-1.1691817-.0318106-1.75-.1-1.007346-.1085173-1.9998696-.3264701-2.96-.65.01-.01.01-.01.02-.01 7.2127751-2.0962211 12.5126348-8.2462343 13.5206444-15.6894986 1.0080097-7.4432643-2.4652103-14.7813784-8.8606444-18.7205014-.5944524-.3570765-.9615155-.9965988-.97-1.69v-8.04c.3288153-.06888676.6640549-.10241072 1-.1 1.3350826-.03010026 2.624416.4870123 3.5687019 1.4312981.9442858.9442859 1.4613984 2.2336193 1.4312981 3.5687019v7.14c.0004721 2.0818808 1.0888568 4.0121518 2.87 5.09 4.4417858 2.7212412 7.1439765 7.5609291 7.13 12.77z" fill="#c03a2b"/><path id="Shape" d="m29 35c.0037141 8.4488935-5.5763671 15.883567-13.69 18.24-.01 0-.01 0-.02.01-5.55449571-1.834184-9.53606643-6.7299806-10.19971209-12.5417125-.66364567-5.8117319 2.11170929-11.4791064 7.10971209-14.5182875 1.7427673-1.0868745 2.8013441-2.9960934 2.8-5.05v-7.14c-.000485-2.3763431 1.6716687-4.42473142 4-4.9v8.04c.0084845.6934012.3755476 1.3329235.97 1.69 5.6133752 3.4565555 9.0317048 9.5777504 9.03 16.17z" fill="#e64c3c"/><g fill="#2980ba"><path id="Shape" d="m13 9c0 .55228475-.4477153 1-1 1h-1.0000022l.0000022-1c-.000246-.33424012.0197909-.66818719.06-1h.94c.5522847 0 1 .44771525 1 1z"/><path id="Shape" d="m13 13c0 .5522847-.4477153 1-1 1h-1v-2h1c.5522847 0 1 .4477153 1 1z"/><path id="Shape" d="m13 17c0 .5522847-.4477153 1-1 1h-1v-2h1c.5522847 0 1 .4477153 1 1z"/><path id="Shape" d="m13 21c0 .5522847-.4477153 1-1 1h-1.2c.1307783-.267877.199157-.5619055.2-.86v-1.14h1c.5522847 0 1 .4477153 1 1z"/></g><circle id="Oval" cx="12" cy="36" fill="#3f5c6c" r="3"/><circle id="Oval" cx="28" cy="36" fill="#3f5c6c" r="3"/><path id="Shape" d="m23 40v1c0 1.6568542-1.3431458 3-3 3s-3-1.3431458-3-3v-1z" fill="#802d40"/><path id="Shape" d="m21.99 43.24c-1.1331086 1.0134831-2.8468914 1.0134831-3.98 0-.0113362-1.1472884.8493633-2.1161161 1.99-2.24 1.1406367.1238839 2.0013362 1.0927116 1.99 2.24z" fill="#fb7b76"/><ellipse id="Oval" cx="11.5" cy="41" fill="#fb7b76" rx="2.5" ry="1"/><ellipse id="Oval" cx="28.5" cy="41" fill="#fb7b76" rx="2.5" ry="1"/><circle id="Oval" cx="11" cy="35" fill="#ecf0f1" r="1"/><circle id="Oval" cx="27" cy="35" fill="#ecf0f1" r="1"/></g></g></svg>