<svg height="512" viewBox="0 0 58 59" width="512" xmlns="http://www.w3.org/2000/svg"><g id="Page-1" fill="none" fill-rule="evenodd"><g id="012---Windy" fill-rule="nonzero" transform="translate(-1)"><path id="Shape" d="m59 29c0 7.1797017-5.8202983 13-13 13h-29c-2.9437226.0042844-5.7029248-1.4333585-7.38608488-3.848414-1.68316006-2.4150555-2.07686864-5.5013166-1.05391512-8.261586-4.44381528-.7150453-7.6761203-4.6030228-7.56760336-9.1026904.10851694-4.4996675 3.52448528-8.2273109 7.99760336-8.7273096.02 0 .29-.03.3-.03 1.1575327-5.72201404 5.5297871-10.25263324 11.2070138-11.61293623 5.6772266-1.36030298 11.6279587.69685686 15.2529862 5.27293623.01-.01.02-.01.03-.02.5409466-.38888948 1.1247729-.7143559 1.74-.97 3.3568569-1.3975112 7.2247331-.64028746 9.8067818 1.91989807 2.5820488 2.56018552 3.3721347 6.42148303 2.0032182 9.79010193 0 .01-.01.01-.01.02 5.7057627 1.5071415 9.680493 6.6685423 9.68 12.57z" fill="#d1d4d1"/><g fill="#a5a5a4"><path id="Shape" d="m49.86 14.56c-.1094574.63397-.2871573 1.2542431-.53 1.85-.0842247-.0001072-.1681411-.0101772-.25-.03-2.5578919-.6533991-5.2583424-.4640168-7.7.54-.5108634.2098682-1.0951318-.0341366-1.305-.545s.0341366-1.0951318.545-1.305c2.8340776-1.1686272 5.9700394-1.3896178 8.94-.63.1044649.027781.2051937.0680725.3.12z"/><path id="Shape" d="m39.39 9.92c-.1236795.0513887-.2560772.0785472-.39.08-.4012802-.00032704-.7635008-.24049505-.92-.61-.5450505-1.26070102-1.26918-2.43614837-2.15-3.49-.0591239-.0703136-.1094924-.14754532-.15-.23.5409466-.38888948 1.1247729-.7143559 1.74-.97.9871402 1.17878452 1.7957717 2.49618003 2.4 3.91.2149432.50810558-.0222174 1.09429492-.53 1.31z"/><path id="Shape" d="m14.9 12.38c-.171137.340772-.5186805.5570213-.9.56-.1562584-.0031715-.3098995-.0407282-.45-.11-1.3193271-.6535992-2.7934378-.9304275-4.26-.8.13950082-.6855281.32662106-1.3604975.56-2.02 1.5938992-.03204934 3.1719643.3213 4.6 1.03.4892153.250167.6890609.8452626.45 1.34z"/><path id="Shape" d="m18.053 16.974c-.3788033.000366-.7252962-.2133369-.895-.552-.2939667-.5846235-.6579748-1.1313073-1.084-1.628-.3418991-.4209178-.2860104-1.0376382.1259866-1.390236.4119971-.3525979 1.0299495-.3125684 1.3930134.090236.5317773.6206523.9861116 1.3036649 1.353 2.034.1552547.3098275.1390303.6779501-.0428799.9729176s-.5035699.4747243-.8501201.4750824z"/></g><path id="Shape" d="m52 28c-.1971916-.000153-.3899366-.0586028-.554-.168l-3-2c-.2781551-.1854732-.4452244-.4976789-.4452244-.832s.1670693-.6465268.4452244-.832l3-2c.297245-.1982824.6776931-.2229246.9980331-.0646441.3203401.1582805.5319049.4754371.555.832s-.1457881.6983617-.4430331.8966441l-1.756 1.168 1.752 1.168c.3661979.2441763.5296901.6990772.4027105 1.1205023s-.5145725.7102786-.9547105.7114977z" fill="#35495e"/><path id="Shape" d="m36 28c-.4408769.0005403-.8300902-.2877099-.9581268-.709586-.1280366-.421876.0353166-.8778265.4021268-1.122414l1.756-1.168-1.752-1.168c-.4595009-.306518-.583518-.9274991-.277-1.387.3065181-.4595009.9274991-.583518 1.387-.277l3 2c.2781551.1854732.4452244.4976789.4452244.832s-.1670693.6465268-.4452244.832l-3 2c-.1651966.110155-.3594461.1686387-.558.168z" fill="#35495e"/><path id="Shape" d="m48 32c-.00191.9848138-.3648086 1.9347544-1.02 2.67-.7587893.8474414-1.8424948 1.3317421-2.98 1.3317421s-2.2212107-.4843007-2.98-1.3317421c-1.189323-1.3282762-1.3559531-3.2833302-.4085707-4.7937188.9473823-1.5103885 2.7800217-2.2114124 4.4935627-1.7188843 1.713541.4925282 2.8942313 2.0596824 2.895008 3.8426031z" fill="#802d40"/><path id="Shape" d="m51 55c-2.209139 0-4-1.790861-4-4v-13c0-.5522847.4477153-1 1-1s1 .4477153 1 1v13c0 1.1045695.8954305 2 2 2s2-.8954305 2-2-.8954305-2-2-2c-.5522847 0-1-.4477153-1-1s.4477153-1 1-1c2.209139 0 4 1.790861 4 4s-1.790861 4-4 4z" fill="#2fa8cc"/><path id="Shape" d="m37 55c-2.209139 0-4-1.790861-4-4s1.790861-4 4-4c.5522847 0 1 .4477153 1 1s-.4477153 1-1 1c-1.1045695 0-2 .8954305-2 2s.8954305 2 2 2 2-.8954305 2-2v-13c0-.5522847.4477153-1 1-1s1 .4477153 1 1v13c0 2.209139-1.790861 4-4 4z" fill="#2fa8cc"/><path id="Shape" d="m44 59c-.5522847 0-1-.4477153-1-1v-18c0-.5522847.4477153-1 1-1s1 .4477153 1 1v18c0 .5522847-.4477153 1-1 1z" fill="#2fa8cc"/><path id="Shape" d="m16 39h-1c-.5522847 0-1-.4477153-1-1s.4477153-1 1-1h1c.5522847 0 1 .4477153 1 1s-.4477153 1-1 1z" fill="#a5a5a4"/><path id="Shape" d="m27 39h-7c-.5522847 0-1-.4477153-1-1s.4477153-1 1-1h7c.5522847 0 1 .4477153 1 1s-.4477153 1-1 1z" fill="#a5a5a4"/><path id="Shape" d="m46.98 34.67c-.7587893.8474414-1.8424948 1.3317421-2.98 1.3317421s-2.2212107-.4843007-2.98-1.3317421c.1755746-1.5129071 1.4569391-2.6541677 2.98-2.6541677s2.8044254 1.1412606 2.98 2.6541677z" fill="#ff5364"/></g></g></svg>