<svg height="512" viewBox="0 0 58 58" width="512" xmlns="http://www.w3.org/2000/svg"><g id="Page-1" fill="none" fill-rule="evenodd"><g id="013---Full-Moon-and-Clouds" fill-rule="nonzero"><path id="Shape" d="m49 24.5c.0011109 1.1409248-.0790922 2.2804782-.24 3.41-.1176047.8376138-.2778124 1.6686913-.48 2.49-2.03-2.68-28.27 17.88-28.24 18.19-.69-.13-1.37-.28-2.03-.47-1.2463347-.3285375-2.4610897-.7669201-3.63-1.31-.12-.06-.25-.11-.37-.17-10.0096901-4.7481557-15.5874443-15.6227054-13.60384113-26.5224392 1.98360317-10.89973381 11.03489723-19.11199588 22.07561733-20.0292635 11.04072-.91726763 21.3231223 5.68874287 25.0782238 16.1117027.8643475 2.3991489 1.3403315 4.9208514 1.41 7.47.02.27.03.55.03.83z" fill="#95a5a5"/><path id="Shape" d="m39.435 10.565c-.2653486.0007185-.5199469-.1047939-.707-.293-6.3371237-6.28175338-16.0400845-7.67299718-23.887-3.425-.313816.17499152-.6973901.16817151-1.0047869-.01786528-.3073968-.1860368-.4913564-.52268868-.4818892-.88187228.0094673-.35918359.2109059-.68567726.5276761-.85526244 8.6262519-4.67181333 19.2944141-3.14187051 26.26 3.766.2859079.28599425.3714219.71603662.216678 1.08965456s-.5192821.61725914-.923678.61734544z" fill="#d1d4d1"/><path id="Shape" d="m9.565 10.565c-.4043959-.0000863-.76893405-.2437275-.92367798-.61734544s-.06922994-.80366031.21667798-1.08965456c.471-.47.97-.926 1.483-1.356.4241547-.35429067 1.0552093-.29765469 1.4095.1265s.2976547 1.05520933-.1265 1.4095c-.468.39-.923.806-1.352 1.234-.1870531.1882061-.44165142.2937185-.707.293z" fill="#d1d4d1"/><path id="Shape" d="m16 15c-1.6568542 0-3-1.3431458-3-3 0-.5522847.4477153-1 1-1s1 .4477153 1 1 .4477153 1 1 1 1-.4477153 1-1 .4477153-1 1-1 1 .4477153 1 1c0 1.6568542-1.3431458 3-3 3z" fill="#3f5c6c"/><path id="Shape" d="m34 15c-1.6568542 0-3-1.3431458-3-3 0-.5522847.4477153-1 1-1s1 .4477153 1 1 .4477153 1 1 1 1-.4477153 1-1 .4477153-1 1-1 1 .4477153 1 1c0 1.6568542-1.3431458 3-3 3z" fill="#3f5c6c"/><path id="Shape" d="m29 17v1c0 2.209139-1.790861 4-4 4s-4-1.790861-4-4v-1z" fill="#802d40"/><circle id="Oval" cx="19" cy="30" fill="#7f8c8d" r="4"/><circle id="Oval" cx="10" cy="35" fill="#7f8c8d" r="2"/><path id="Shape" d="m48.76 27.91c-.1176047.8376138-.2778124 1.6686913-.48 2.49-2.03-2.68-28.27 17.88-28.24 18.19-.69-.13-1.37-.28-2.03-.47-.01-.15-.01-.31-.01-.47-.0276311-5.3216514 3.3637714-10.0599367 8.41-11.75.03-.3.07-.59.12-.88 1.0334138-6.3420312 6.5043427-11.0048027 12.93-11.02 3.5031409-.0176666 6.8618972 1.3944557 9.3 3.91z" fill="#7f8c8d"/><path id="Shape" d="m58 49.53c.0343766 4.6413365-3.6986869 8.4325893-8.34 8.47h-19.46c-5.313328-.0302124-9.7232179-4.114569-10.16-9.41-.03-.31-.04-.62-.04-.94-.0331295-4.9640513 3.4762706-9.2467802 8.35-10.19v-.03c-.008665-.0461321-.0120202-.0931046-.01-.14-.0026337-.6434363.0509028-1.2858746.16-1.92.8793214-5.3782531 5.5104351-9.3375173 10.96-9.37 3.4677756.0004628 6.7339334 1.6298386 8.82 4.4 1.5036929 1.9817562 2.3152404 4.4023459 2.31 6.89.0021991.6334732-.0513406 1.2659116-.16 1.89-.1046357.6352682-.2618425 1.2607506-.47 1.87-.01.01-.01.01-.01.02 4.5253035.1885726 8.0862789 3.9309146 8.05 8.46z" fill="#ecf0f1"/><path id="Shape" d="m34.3 33.277c-.3973497-.0000549-.7569689-.2353592-.9161318-.5994388-.1591628-.3640797-.0876687-.7878516.1821318-1.0795612 1.5204278-1.648172 3.6576638-2.5900048 5.9-2.6.5522847 0 1 .4477153 1 1s-.4477153 1-1 1c-1.6863827-.0006877-3.2948535.7098715-4.43 1.957-.1895396.2054919-.456443.3222621-.736.322z" fill="#fff"/><path id="Shape" d="m35.44 37.82c-.1680172.3375901-.5129107.5507265-.89.55-.1564066-.0020217-.3102984-.0396397-.45-.11-1.7727026-.903157-3.7942471-1.1949626-5.75-.83-.008665-.0461321-.0120202-.0931046-.01-.14-.0026337-.6434363.0509028-1.2858746.16-1.92 2.2323267-.2972551 4.5023098.0897927 6.51 1.11.2349324.1204518.4122946.3294178.4929629.5808029.0806684.2513852.0580151.5245352-.0629629.7591971z" fill="#d1d4d1"/><path id="Shape" d="m50.43 39.18c-.1046357.6352682-.2618425 1.2607506-.47 1.87h-.01c-1.1407023-.0021186-2.2653512.2687573-3.28.79-.1401005.0692718-.2937416.1068285-.45.11-.4627034.0018765-.8662689-.3139261-.9756912-.763509s.1038779-.9155222.5156912-1.126491c1.2958845-.6666693 2.7326889-1.0130112 4.19-1.01.1691158-.0032666.3356468.0418356.48.13z" fill="#d1d4d1"/><path id="Shape" d="m28 48c-1.6568542 0-3-1.3431458-3-3 0-.5522847.4477153-1 1-1s1 .4477153 1 1 .4477153 1 1 1 1-.4477153 1-1 .4477153-1 1-1 1 .4477153 1 1c0 1.6568542-1.3431458 3-3 3z" fill="#3f5c6c"/><path id="Shape" d="m38 48c-1.6568542 0-3-1.3431458-3-3 0-.5522847.4477153-1 1-1s1 .4477153 1 1 .4477153 1 1 1 1-.4477153 1-1 .4477153-1 1-1 1 .4477153 1 1c0 1.6568542-1.3431458 3-3 3z" fill="#3f5c6c"/><path id="Shape" d="m33 53c-1.6568542 0-3-1.3431458-3-3 0-.5522847.4477153-1 1-1s1 .4477153 1 1 .4477153 1 1 1 1-.4477153 1-1 .4477153-1 1-1 1 .4477153 1 1c0 1.6568542-1.3431458 3-3 3z" fill="#35495e"/><g fill="#f0c419"><path id="Shape" d="m52 5c-.5522847 0-1-.44771525-1-1v-1c0-.55228475.4477153-1 1-1s1 .44771525 1 1v1c0 .55228475-.4477153 1-1 1z"/><path id="Shape" d="m55 7h-1c-.5522847 0-1-.44771525-1-1s.4477153-1 1-1h1c.5522847 0 1 .44771525 1 1s-.4477153 1-1 1z"/><path id="Shape" d="m52 10c-.5522847 0-1-.44771525-1-1v-1c0-.55228475.4477153-1 1-1s1 .44771525 1 1v1c0 .55228475-.4477153 1-1 1z"/><path id="Shape" d="m50 7h-1c-.5522847 0-1-.44771525-1-1s.4477153-1 1-1h1c.5522847 0 1 .44771525 1 1s-.4477153 1-1 1z"/><path id="Shape" d="m7 51c-.55228475 0-1-.4477153-1-1v-1c0-.5522847.44771525-1 1-1s1 .4477153 1 1v1c0 .5522847-.44771525 1-1 1z"/><path id="Shape" d="m10 53h-1c-.55228475 0-1-.4477153-1-1s.44771525-1 1-1h1c.5522847 0 1 .4477153 1 1s-.4477153 1-1 1z"/><path id="Shape" d="m7 56c-.55228475 0-1-.4477153-1-1v-1c0-.5522847.44771525-1 1-1s1 .4477153 1 1v1c0 .5522847-.44771525 1-1 1z"/><path id="Shape" d="m5 53h-1c-.55228475 0-1-.4477153-1-1s.44771525-1 1-1h1c.55228475 0 1 .4477153 1 1s-.44771525 1-1 1z"/></g><path id="Shape" d="m20 47.65c0 .32.01.63.04.94-1.9539902-.3530486-3.8556592-.9511-5.66-1.78-.12-.06-.25-.11-.37-.17-.128751-1.6851849.4391852-3.3494448 1.571261-4.6043669s2.72924-1.9907068 4.418739-2.0356331c.93176-.0012921 1.8492428.2289376 2.67.67-1.7254084 1.9146777-2.6770933 4.4026031-2.67 6.98z" fill="#7f8c8d"/><path id="Shape" d="m49 24.5v.1c-1.8685797.8110358-4.0422428.4092078-5.4973781-1.0162572-1.4551353-1.4254649-1.9016511-3.59039-1.1292763-5.4752789.7723749-1.8848889 2.6096618-3.1139754 4.6466544-3.1084639h.07c.17.4.32.8.47 1.2.8643475 2.3991489 1.3403315 4.9208514 1.41 7.47.02.27.03.55.03.83z" fill="#7f8c8d"/><path id="Shape" d="m8 24c.01065154 1.3154866-.50173029 2.581321-1.42441847 3.5190122-.92268818.9376913-2.18009428 1.4704218-3.49558153 1.4809878-1.00991072.0051688-1.99484046-.3137943-2.81-.91-.03-.16-.05-.33-.07-.49-.13261747-1.0280196-.1994202-2.0634619-.2-3.1-.00115065-1.5883798.15629697-3.1729059.47-4.73.77714445-.503854 1.68381397-.7713389 2.61-.77 1.31548725.010566 2.57289335.5432965 3.49558153 1.4809878.92268818.9376912 1.43507001 2.2035256 1.42441847 3.5190122z" fill="#7f8c8d"/><path id="Shape" d="m27.78 20.88c-1.5524808 1.4934256-4.0075192 1.4934256-5.56 0 .4591108-1.1318453 1.5585842-1.8723476 2.78-1.8723476s2.3208892.7405023 2.78 1.8723476z" fill="#ff5364"/></g></g></svg>