<svg height="512" viewBox="0 0 58 58" width="512" xmlns="http://www.w3.org/2000/svg"><g id="Page-1" fill="none" fill-rule="evenodd"><g id="014---Hail" fill-rule="nonzero" transform="translate(-1)"><path id="Shape" d="m59 29c0 7.1797017-5.8202983 13-13 13h-29c-2.9437226.0042844-5.7029248-1.4333585-7.38608488-3.848414-1.68316006-2.4150555-2.07686864-5.5013166-1.05391512-8.261586-4.44381528-.7150453-7.6761203-4.6030228-7.56760336-9.1026904.10851694-4.4996675 3.52448528-8.2273109 7.99760336-8.7273096.02 0 .29-.03.3-.03 1.1575327-5.72201404 5.5297871-10.25263324 11.2070138-11.61293623 5.6772266-1.36030298 11.6279587.69685686 15.2529862 5.27293623.01-.01.02-.01.03-.02.5409466-.38888948 1.1247729-.7143559 1.74-.97 3.3568569-1.3975112 7.2247331-.64028746 9.8067818 1.91989807 2.5820488 2.56018552 3.3721347 6.42148303 2.0032182 9.79010193 0 .01-.01.01-.01.02 5.7057627 1.5071415 9.680493 6.6685423 9.68 12.57z" fill="#95a5a5"/><path id="Shape" d="m39.39 9.92c-.1236795.0513887-.2560772.0785472-.39.08-.4012802-.00032704-.7635008-.24049505-.92-.61-.5450505-1.26070102-1.26918-2.43614837-2.15-3.49-.0591239-.0703136-.1094924-.14754532-.15-.23.5409466-.38888948 1.1247729-.7143559 1.74-.97.9871402 1.17878452 1.7957717 2.49618003 2.4 3.91.2149432.50810558-.0222174 1.09429492-.53 1.31z" fill="#7f8c8d"/><path id="Shape" d="m14.9 12.38c-.171137.340772-.5186805.5570213-.9.56-.1562584-.0031715-.3098995-.0407282-.45-.11-1.3193271-.6535992-2.7934378-.9304275-4.26-.8.13950082-.6855281.32662106-1.3604975.56-2.02 1.5938992-.03204934 3.1719643.3213 4.6 1.03.4892153.250167.6890609.8452626.45 1.34z" fill="#7f8c8d"/><path id="Shape" d="m18.053 16.974c-.3788033.000366-.7252962-.2133369-.895-.552-.2939667-.5846235-.6579748-1.1313073-1.084-1.628-.3418991-.4209178-.2860104-1.0376382.1259866-1.390236.4119971-.3525979 1.0299495-.3125684 1.3930134.090236.5317773.6206523.9861116 1.3036649 1.353 2.034.1552547.3098275.1390303.6779501-.0428799.9729176s-.5035699.4747243-.8501201.4750824z" fill="#7f8c8d"/><path id="Shape" d="m49.15 29.657c-.1018478.2692657-.1527132.5551291-.15.843.0007188 1.3334821 1.0479104 2.4316776 2.3798519 2.4957635 1.3319415.064086 2.4797303-.9284987 2.6084696-2.255752s-.8068928-2.5219231-2.1263215-2.7150115z" fill="#35495e"/><path id="Shape" d="m36.137 28.02c-1.3185635.1935107-2.2535258 1.3873165-2.1254133 2.7138319.1281125 1.3265155 1.2742549 2.3193318 2.6054807 2.2569306 1.3312259-.0624012 2.3794701-1.1580794 2.3829326-2.4907625.0021782-.2858743-.0486818-.5696734-.15-.837z" fill="#35495e"/><path id="Shape" d="m47 38c-.5522847 0-1-.4477153-1-1 0-1.1045695-.8954305-2-2-2s-2 .8954305-2 2c0 .5522847-.4477153 1-1 1s-1-.4477153-1-1c0-2.209139 1.790861-4 4-4s4 1.790861 4 4c0 .5522847-.4477153 1-1 1z" fill="#802d40"/><g fill="#e64c3c"><path id="Shape" d="m44 20c-1.6568542 0-3-1.3431458-3-3 0-.5522847.4477153-1 1-1s1 .4477153 1 1 .4477153 1 1 1 1 .4477153 1 1-.4477153 1-1 1z"/><path id="Shape" d="m37 20c-.5522847 0-1-.4477153-1-1s.4477153-1 1-1 1-.4477153 1-1 .4477153-1 1-1 1 .4477153 1 1c0 1.6568542-1.3431458 3-3 3z"/><path id="Shape" d="m42 25c-.5522847 0-1-.4477153-1-1 0-1.6568542 1.3431458-3 3-3 .5522847 0 1 .4477153 1 1s-.4477153 1-1 1-1 .4477153-1 1c0 .2652165-.1053568.5195704-.2928932.7071068s-.4418903.2928932-.7071068.2928932z"/><path id="Shape" d="m39 25c-.5522847 0-1-.4477153-1-1s-.4477153-1-1-1-1-.4477153-1-1 .4477153-1 1-1c1.6568542 0 3 1.3431458 3 3 0 .2652165-.1053568.5195704-.2928932.7071068s-.4418903.2928932-.7071068.2928932z"/></g><path id="Shape" d="m17 39h-1c-.5522847 0-1-.4477153-1-1s.4477153-1 1-1h1c.5522847 0 1 .4477153 1 1s-.4477153 1-1 1z" fill="#7f8c8d"/><path id="Shape" d="m31 39h-10c-.5522847 0-1-.4477153-1-1s.4477153-1 1-1h10c.5522847 0 1 .4477153 1 1s-.4477153 1-1 1z" fill="#7f8c8d"/><circle id="Oval" cx="38" cy="54" fill="#67b9cc" r="4"/><circle id="Oval" cx="50" cy="49" fill="#67b9cc" r="3"/><circle id="Oval" cx="13" cy="55" fill="#67b9cc" r="3"/><circle id="Oval" cx="25" cy="50" fill="#67b9cc" r="4"/><circle id="Oval" cx="36" cy="30" fill="#ecf0f1" r="1"/><circle id="Oval" cx="51" cy="30" fill="#ecf0f1" r="1"/><path id="Shape" d="m48 31c-.4494307.0003074-.8438561-.2992511-.9641796-.7322756-.1203235-.4330246.0630173-.8931255.4481796-1.1247244l5-3c.3065026-.1918041.6926712-.2032165 1.0099658-.0298476.3172946.173369.5162906.5045139.5204443.8660598.0041536.3615458-.1871822.6971751-.5004101.8777878l-5 3c-.1551006.093616-.3328366.143064-.514.143z" fill="#2c3e50"/><path id="Shape" d="m40 31c-.1811634.000064-.3588994-.049384-.514-.143l-5-3c-.3132279-.1806127-.5045637-.516242-.5004101-.8777878.0041537-.3615459.2031497-.6926908.5204443-.8660598.3172946-.1733689.7034632-.1619565 1.0099658.0298476l5 3c.3851623.2315989.5685031.6916998.4481796 1.1247244-.1203235.4330245-.5147489.732583-.9641796.7322756z" fill="#2c3e50"/></g></g></svg>