<svg height="512" viewBox="0 0 58 58" width="512" xmlns="http://www.w3.org/2000/svg"><g id="Page-1" fill="none" fill-rule="evenodd"><g id="015---Sunrise" fill-rule="nonzero"><path id="Shape" d="m5.25 44.21-.75-.22c-.53026495-.1560281-.84038309-.7053802-.7-1.24l1.83-6.8c.08989496-.3434656-.00906155-.7088435-.26-.96l-5.09-5.29c-.36981757-.3933997-.36981757-1.0066003 0-1.4l5.09-5.29c.25093845-.2511565.34989496-.6165344.26-.96l-1.83-6.8c-.14038309-.5346198.16973505-1.0839719.7-1.24l7.03-2.01c.3420338-.1029801.6066936-.3752016.7-.72l1.83-6.8c.0659011-.25750666.2316107-.47818129.4605245-.61327795s.5021944-.17349825.7594755-.10672205l7.1 1.76c.3434656.08989496.7088435-.00906155.96-.26l4.96-4.96c.4005652-.40002296 1.0494348-.40002296 1.45 0l4.96 4.96c.2511565.25093845.6165344.34989496.96.26l7.11-1.76c.5318913-.13810415 1.0770936.17217358 1.23.7l2.02 7.05c.1021039.3389655.3696204.6027142.71.7l6.81 1.82c.5306826.1447142.8498227.6854794.72 1.22l-1.77 7.1c-.0912169.3483628.011913.7188662.27.97l4.96 4.96c.390213.4006947.390213 1.0393053 0 1.44l-4.96 4.96c-.258087.2511338-.3612169.6216372-.27.97l1.77 7.11c.1309456.5309209-.1766638 1.0714346-.7 1.23l-.81.23z" fill="#f29c1f"/><circle id="Oval" cx="29" cy="29" fill="#e57e25" r="23"/><path id="Shape" d="m46.86 40.09c4.7092569-7.5681625 4.1276239-17.2847077-1.4508312-24.2370471-5.578455-6.95233937-14.9381423-9.62550271-23.346897-6.6679652-8.4087547 2.9575375-14.03424217 10.9013049-14.0322718 19.8150123-.00913505 3.9138106 1.08615424 7.7507892 3.16 11.07z" fill="#f0c419"/><ellipse id="Oval" cx="18.762" cy="18.538" fill="#f3d55b" rx="7.815" ry="5.136" transform="matrix(.746 -.666 .666 .746 -7.579 17.19)"/><path id="Shape" d="m24.025 20c-.5522847 0-1-.4477153-1-1s-.4477153-1-1-1-1 .4477153-1 1-.4477153 1-1 1-1-.4477153-1-1c0-1.6568542 1.3431458-3 3-3s3 1.3431458 3 3c0 .5522847-.4477153 1-1 1z" fill="#3f5c6c"/><path id="Shape" d="m38.025 20c-.5522847 0-1-.4477153-1-1s-.4477153-1-1-1-1 .4477153-1 1-.4477153 1-1 1-1-.4477153-1-1c0-1.6568542 1.3431458-3 3-3s3 1.3431458 3 3c0 .5522847-.4477153 1-1 1z" fill="#3f5c6c"/><path id="Shape" d="m32.03 22v1c.0000702.7955351-.3165773 1.5583676-.88 2.12-.06.05-.11.11-.17.15-.8885523.7600227-2.1377213.9345424-3.2005491.4471446-1.0628279-.4873978-1.7456356-1.5478948-1.7494509-2.7171446v-1z" fill="#802d40"/><path id="Shape" d="m58 55.25c0-10.631-12.984-19.25-29-19.25s-29 8.619-29 19.25v1.833c.02378512.5289614.47096232.9390229 1 .917h56c.5290377.0220229.9762149-.3880386 1-.917z" fill="#4fba6f"/><path id="Shape" d="m5 55h-1c-.55228475 0-1-.4477153-1-1s.44771525-1 1-1h1c.55228475 0 1 .4477153 1 1s-.44771525 1-1 1z" fill="#24ae5f"/><path id="Shape" d="m25 55h-16c-.55228475 0-1-.4477153-1-1s.44771525-1 1-1h16c.5522847 0 1 .4477153 1 1s-.4477153 1-1 1z" fill="#24ae5f"/><path id="Shape" d="m31 25c-.0016891.0902997-.0083659.180437-.02.27-1.1448967.9956174-2.8557135.9697612-3.97-.06-.0083174-.0696736-.0116592-.1398513-.01-.21 0-1.1045695.8954305-1.9999999 2-1.9999999s2 .8954304 2 1.9999999z" fill="#ff5364"/><g fill="#fb7b76"><ellipse id="Oval" cx="20.5" cy="23" rx="2.5" ry="1"/><ellipse id="Oval" cx="37.5" cy="23" rx="2.5" ry="1"/></g></g></g></svg>