<svg height="512" viewBox="0 0 58 59" width="512" xmlns="http://www.w3.org/2000/svg"><g id="Page-1" fill="none" fill-rule="evenodd"><g id="027---Sleet" fill-rule="nonzero" transform="translate(-1)"><path id="Shape" d="m59 29c0 7.1797017-5.8202983 13-13 13h-29c-2.9437226.0042844-5.7029248-1.4333585-7.38608488-3.848414-1.68316006-2.4150555-2.07686864-5.5013166-1.05391512-8.261586-4.44381528-.7150453-7.6761203-4.6030228-7.56760336-9.1026904.10851694-4.4996675 3.52448528-8.2273109 7.99760336-8.7273096.02 0 .29-.03.3-.03 1.1575327-5.72201404 5.5297871-10.25263324 11.2070138-11.61293623 5.6772266-1.36030298 11.6279587.69685686 15.2529862 5.27293623.01-.01.02-.01.03-.02.5409466-.38888948 1.1247729-.7143559 1.74-.97 3.3568569-1.3975112 7.2247331-.64028746 9.8067818 1.91989807 2.5820488 2.56018552 3.3721347 6.42148303 2.0032182 9.79010193 0 .01-.01.01-.01.02 5.7057627 1.5071415 9.680493 6.6685423 9.68 12.57z" fill="#95a5a5"/><g fill="#7f8c8d"><path id="Shape" d="m49.86 14.56c-.1094574.63397-.2871573 1.2542431-.53 1.85-.0842247-.0001072-.1681411-.0101772-.25-.03-2.5578919-.6533991-5.2583424-.4640168-7.7.54-.5108634.2098682-1.0951318-.0341366-1.305-.545s.0341366-1.0951318.545-1.305c2.8340776-1.1686272 5.9700394-1.3896178 8.94-.63.1044649.027781.2051937.0680725.3.12z"/><path id="Shape" d="m39.39 9.92c-.1236795.0513887-.2560772.0785472-.39.08-.4012802-.00032704-.7635008-.24049505-.92-.61-.5450505-1.26070102-1.26918-2.43614837-2.15-3.49-.0591239-.0703136-.1094924-.14754532-.15-.23.5409466-.38888948 1.1247729-.7143559 1.74-.97.9871402 1.17878452 1.7957717 2.49618003 2.4 3.91.2149432.50810558-.0222174 1.09429492-.53 1.31z"/><path id="Shape" d="m14.9 12.38c-.171137.340772-.5186805.5570213-.9.56-.1562584-.0031715-.3098995-.0407282-.45-.11-1.3193271-.6535992-2.7934378-.9304275-4.26-.8.13950082-.6855281.32662106-1.3604975.56-2.02 1.5938992-.03204934 3.1719643.3213 4.6 1.03.4892153.250167.6890609.8452626.45 1.34z"/><path id="Shape" d="m18.053 16.974c-.3788033.000366-.7252962-.2133369-.895-.552-.2939667-.5846235-.6579748-1.1313073-1.084-1.628-.3418991-.4209178-.2860104-1.0376382.1259866-1.390236.4119971-.3525979 1.0299495-.3125684 1.3930134.090236.5317773.6206523.9861116 1.3036649 1.353 2.034.1552547.3098275.1390303.6779501-.0428799.9729176s-.5035699.4747243-.8501201.4750824z"/></g><path id="Shape" d="m41 35c-2.209139 0-4-1.790861-4-4 0-.5522847.4477153-1 1-1s1 .4477153 1 1c0 1.1045695.8954305 2 2 2s2-.8954305 2-2c0-.5522847.4477153-1 1-1s1 .4477153 1 1c0 2.209139-1.790861 4-4 4z" fill="#2c3e50"/><path id="Shape" d="m39.414 52 .293-.293c.3789722-.3923789.3735524-1.0160848-.0121814-1.4018186s-1.0094397-.3911536-1.4018186-.0121814l-.707.707h-2.172l1.293-1.293c.3789722-.3923789.3735524-1.0160848-.0121814-1.4018186s-1.0094397-.3911536-1.4018186-.0121814l-1.293 1.293v-2.172l.707-.707c.3789722-.3923789.3735524-1.0160848-.0121814-1.4018186s-1.0094397-.3911536-1.4018186-.0121814l-.293.293-.293-.293c-.3923789-.3789722-1.0160848-.3735524-1.4018186.0121814s-.3911536 1.0094397-.0121814 1.4018186l.707.707v2.172l-1.293-1.293c-.3923789-.3789722-1.0160848-.3735524-1.4018186.0121814s-.3911536 1.0094397-.0121814 1.4018186l1.293 1.293h-2.172l-.707-.707c-.3923789-.3789722-1.0160848-.3735524-1.4018186.0121814s-.3911536 1.0094397-.0121814 1.4018186l.293.293-.293.293c-.2599566.2510745-.3642126.6228779-.2726972.9725073.0915155.3496295.3645604.6226744.7141899.7141899.3496294.0915154.7214328-.0127406.9725073-.2726972l.707-.707h2.172l-1.293 1.293c-.2599566.2510745-.3642126.6228779-.2726972.9725073.0915155.3496295.3645604.6226744.7141899.7141899.3496294.0915154.7214328-.0127406.9725073-.2726972l1.293-1.293v2.172l-.707.707c-.3789722.3923789-.3735524 1.0160848.0121814 1.4018186s1.0094397.3911536 1.4018186.0121814l.293-.293.293.293c.3923789.3789722 1.0160848.3735524 1.4018186-.0121814s.3911536-1.0094397.0121814-1.4018186l-.707-.707v-2.172l1.293 1.293c.3923789.3789722 1.0160848.3735524 1.4018186-.0121814s.3911536-1.0094397.0121814-1.4018186l-1.293-1.293h2.172l.707.707c.3923789.3789722 1.0160848.3735524 1.4018186-.0121814s.3911536-1.0094397.0121814-1.4018186z" fill="#67b9cc"/><path id="Shape" d="m16 39h-1c-.5522847 0-1-.4477153-1-1s.4477153-1 1-1h1c.5522847 0 1 .4477153 1 1s-.4477153 1-1 1z" fill="#7f8c8d"/><path id="Shape" d="m35 39h-15c-.5522847 0-1-.4477153-1-1s.4477153-1 1-1h15c.5522847 0 1 .4477153 1 1s-.4477153 1-1 1z" fill="#7f8c8d"/><path id="Shape" d="m43 50c0 1.1045695.8954305 2 2 2s2-.8954305 2-2c0-1.1-2-4-2-4s-2 2.9-2 4z" fill="#2fa8cc"/><path id="Shape" d="m50 56c0 1.1045695.8954305 2 2 2s2-.8954305 2-2c0-1.1-2-4-2-4s-2 2.9-2 4z" fill="#2fa8cc"/><path id="Shape" d="m23 50c0 1.1045695-.8954305 2-2 2s-2-.8954305-2-2c0-1.1 2-4 2-4s2 2.9 2 4z" fill="#2fa8cc"/><path id="Shape" d="m16 56c0 1.1045695-.8954305 2-2 2s-2-.8954305-2-2c0-1.1 2-4 2-4s2 2.9 2 4z" fill="#2fa8cc"/><circle id="Oval" cx="49" cy="27" fill="#35495e" r="3"/><circle id="Oval" cx="33" cy="27" fill="#35495e" r="3"/><circle id="Oval" cx="32" cy="26" fill="#ecf0f1" r="1"/><circle id="Oval" cx="48" cy="26" fill="#ecf0f1" r="1"/></g></g></svg>