<svg height="512" viewBox="0 0 58 58" width="512" xmlns="http://www.w3.org/2000/svg"><g id="Page-1" fill="none" fill-rule="evenodd"><g id="029---Full-Moon-Fog" fill-rule="nonzero"><path id="Shape" d="m24 48.98c-3.3226911-.0463785-6.5991609-.7854574-9.62-2.17-.12-.06-.25-.11-.37-.17-10.0096901-4.7481557-15.5874443-15.6227054-13.60384113-26.5224392 1.98360317-10.89973381 11.03489723-19.11199588 22.07561733-20.0292635 11.04072-.91726763 21.3231223 5.68874287 25.0782238 16.1117027.8643475 2.3991489 1.3403315 4.9208514 1.41 7.47.02.27.03.55.03.83.0015002 1.2017944-.0887622 2.4019492-.27 3.59z" fill="#d1d4d1"/><path id="Shape" d="m39.435 10.565c-.2653486.0007185-.5199469-.1047939-.707-.293-6.3357253-6.28374644-16.0398166-7.67521059-23.886-3.425-.313816.17499152-.6973901.16817151-1.0047869-.01786528-.3073968-.1860368-.4913564-.52268868-.4818892-.88187228.0094673-.35918359.2109059-.68567726.5276761-.85526244 8.6259447-4.67165054 19.2937371-3.14170249 26.259 3.766.2859079.28599425.3714219.71603662.216678 1.08965456s-.5192821.61725914-.923678.61734544z" fill="#ecf0f1"/><path id="Shape" d="m9.565 10.565c-.4043959-.0000863-.76893405-.2437275-.92367798-.61734544s-.06922994-.80366031.21667798-1.08965456c.474-.473.973-.929 1.484-1.356.27438-.22882861.6499961-.29389499.9853575-.17068927s.5795186.41596567.6405.768-.0704775.70986066-.3448575.93868927c-.465.388-.919.8-1.351 1.234-.1870531.1882061-.44165142.2937185-.707.293z" fill="#ecf0f1"/><path id="Shape" d="m16 18c-1.6568542 0-3-1.3431458-3-3 0-.5522847.4477153-1 1-1s1 .4477153 1 1 .4477153 1 1 1 1-.4477153 1-1 .4477153-1 1-1 1 .4477153 1 1c0 1.6568542-1.3431458 3-3 3z" fill="#547580"/><path id="Shape" d="m34 18c-1.6568542 0-3-1.3431458-3-3 0-.5522847.4477153-1 1-1s1 .4477153 1 1 .4477153 1 1 1 1-.4477153 1-1 .4477153-1 1-1 1 .4477153 1 1c0 1.6568542-1.3431458 3-3 3z" fill="#547580"/><path id="Shape" d="m25 17c2.209139 0 4 1.790861 4 4v1h-8v-1c0-2.209139 1.790861-4 4-4z" fill="#802d40"/><circle id="Oval" cx="19" cy="30" fill="#a5a5a4" r="4"/><circle id="Oval" cx="10" cy="35" fill="#a5a5a4" r="2"/><g fill="#f0c419"><path id="Shape" d="m52 5c-.5522847 0-1-.44771525-1-1v-1c0-.55228475.4477153-1 1-1s1 .44771525 1 1v1c0 .55228475-.4477153 1-1 1z"/><path id="Shape" d="m55 7h-1c-.5522847 0-1-.44771525-1-1s.4477153-1 1-1h1c.5522847 0 1 .44771525 1 1s-.4477153 1-1 1z"/><path id="Shape" d="m52 10c-.5522847 0-1-.44771525-1-1v-1c0-.55228475.4477153-1 1-1s1 .44771525 1 1v1c0 .55228475-.4477153 1-1 1z"/><path id="Shape" d="m50 7h-1c-.5522847 0-1-.44771525-1-1s.4477153-1 1-1h1c.5522847 0 1 .44771525 1 1s-.4477153 1-1 1z"/><path id="Shape" d="m7 51c-.55228475 0-1-.4477153-1-1v-1c0-.5522847.44771525-1 1-1s1 .4477153 1 1v1c0 .5522847-.44771525 1-1 1z"/><path id="Shape" d="m10 53h-1c-.55228475 0-1-.4477153-1-1s.44771525-1 1-1h1c.5522847 0 1 .4477153 1 1s-.4477153 1-1 1z"/><path id="Shape" d="m7 56c-.55228475 0-1-.4477153-1-1v-1c0-.5522847.44771525-1 1-1s1 .4477153 1 1v1c0 .5522847-.44771525 1-1 1z"/><path id="Shape" d="m5 53h-1c-.55228475 0-1-.4477153-1-1s.44771525-1 1-1h1c.55228475 0 1 .4477153 1 1s-.44771525 1-1 1z"/></g><path id="Shape" d="m28.43 45.24-4.43 3.74c-3.3226911-.0463785-6.5991609-.7854574-9.62-2.17-.12-.06-.25-.11-.37-.17-.128751-1.6851849.4391852-3.3494448 1.571261-4.6043669s2.72924-1.9907068 4.418739-2.0356331c3.15 0 5.5 2.67 8.43 5.24z" fill="#a5a5a4"/><path id="Shape" d="m49 24.5v.1c-1.8685797.8110358-4.0422428.4092078-5.4973781-1.0162572-1.4551353-1.4254649-1.9016511-3.59039-1.1292763-5.4752789.7723749-1.8848889 2.6096618-3.1139754 4.6466544-3.1084639h.07c.17.4.32.8.47 1.2.8643475 2.3991489 1.3403315 4.9208514 1.41 7.47.02.27.03.55.03.83z" fill="#a5a5a4"/><path id="Shape" d="m8 24c.01065154 1.3154866-.50173029 2.581321-1.42441847 3.5190122-.92268818.9376913-2.18009428 1.4704218-3.49558153 1.4809878-1.00991072.0051688-1.99484046-.3137943-2.81-.91-.03-.16-.05-.33-.07-.49-.13261747-1.0280196-.1994202-2.0634619-.2-3.1-.00115065-1.5883798.15629697-3.1729059.47-4.73.77714445-.503854 1.68381397-.7713389 2.61-.77 1.31548725.010566 2.57289335.5432965 3.49558153 1.4809878.92268818.9376912 1.43507001 2.2035256 1.42441847 3.5190122z" fill="#a5a5a4"/><path id="Shape" d="m58 43c0 1.6568542-1.3431458 3-3 3h-12c1.6568542.0000001 2.9999999 1.3431458 2.9999999 3s-1.3431457 2.9999999-2.9999999 3h8c1.6568542 0 3 1.3431458 3 3s-1.3431458 3-3 3h-18c-1.6568542 0-3-1.3431458-3-3s1.3431458-3 3-3h-6c-1.6568542 0-3-1.3431458-3-3s1.3431458-3 3-3h-4c-1.6568542 0-3-1.3431458-3-3s1.3431458-3 3-3h6c-1.6568542 0-3-1.3431458-3-3s1.3431458-3 3-3h5c-1.6568542 0-3-1.3431458-3-3s1.3431458-3 3-3h14c1.6568542 0 3 1.3431458 3 3s-1.3431458 3-3 3h4c1.6568542 0 3 1.3431458 3 3s-1.3431458 3-3 3h3c.7956495 0 1.5587112.3160705 2.1213203.8786797.5626092.5626091.8786797 1.3256708.8786797 2.1213203z" fill="#7f8c8d"/><path id="Shape" d="m48 55c0 1.6568542-1.3431458 3-3 3h-5c-1.6568542 0-3-1.3431458-3-3s1.3431458-3 3-3h5c1.6568542 0 3 1.3431458 3 3z" fill="#95a5a5"/><path id="Shape" d="m52 43c0 1.6568542-1.3431458 3-3 3h-12c1.6568542.0000001 2.9999999 1.3431458 2.9999999 3s-1.3431457 2.9999999-2.9999999 3h-3c-1.6568542 0-3-1.3431458-3-3s1.3431458-3 3-3h-4c-1.6568542 0-3-1.3431458-3-3s1.3431458-3 3-3h6c-1.6568542 0-3-1.3431458-3-3s1.3431458-3 3-3h5c-1.6568542 0-3-1.3431458-3-3s1.3431458-3 3-3h1c1.6568542 0 3 1.3431458 3 3s-1.3431458 3-3 3h4c1.6568542 0 3 1.3431458 3 3s-1.3431458 3-3 3h3c.7956495 0 1.5587112.3160705 2.1213203.8786797.5626092.5626091.8786797 1.3256708.8786797 2.1213203z" fill="#95a5a5"/><path id="Shape" d="m25 19c1.1045695 0 2 .8954305 2 2v1h-4v-1c0-1.1045695.8954305-2 2-2z" fill="#ff5364"/></g></g></svg>