<svg height="512" viewBox="0 0 58 50" width="512" xmlns="http://www.w3.org/2000/svg"><g id="Page-1" fill="none" fill-rule="evenodd"><g id="030---Raindrops" fill-rule="nonzero"><path id="Shape" d="m44.18 23.04c1.62-1.88 2.82-3.04 2.82-3.04s11 10.62 11 19.38c-.1067587 5.9694044-5.030531 10.7230828-11 10.62-4.8655865.0546633-9.1819346-3.112289-10.59-7.77z" fill="#90bae1"/><path id="Shape" d="m55.433 34.854c-.1565141 4.5444385-3.8858671 8.1475607-8.433 8.1475607s-8.2764859-3.6031222-8.433-8.1475607c0-6.708 8.433-14.854 8.433-14.854s8.433 8.146 8.433 14.854z" fill="#b0d3f0"/><path id="Shape" d="m13.82 23.04c-1.62-1.88-2.82-3.04-2.82-3.04s-11 10.62-11 19.38c.10675867 5.9694044 5.03053102 10.7230828 11 10.62 4.8655865.0546633 9.1819346-3.112289 10.59-7.77z" fill="#90bae1"/><path id="Shape" d="m19.364 34.854c-.060902 4.5588084-3.8051729 8.2054883-8.364 8.146-4.55882711.0594883-8.30309795-3.5871916-8.364-8.146 0-6.708 8.364-14.854 8.364-14.854s8.364 8.146 8.364 14.854z" fill="#b0d3f0"/><path id="Shape" d="m45 28.417c-.1190604 8.7197241-7.2801721 15.6941993-16 15.583-8.7198279.1111993-15.8809396-6.8632759-16-15.583 0-12.834 16-28.417 16-28.417s16 15.583 16 28.417z" fill="#2fa8cc"/><path id="Shape" d="m41.727 22.6c-.0905381 6.9385266-5.7884672 12.4900564-12.727 12.4-6.9385328.0900564-12.6364619-5.4614734-12.727-12.4 0-10.2 12.727-22.6 12.727-22.6s12.727 12.4 12.727 22.6z" fill="#67b9cc"/><path id="Shape" d="m21.3 17.178c-.3600273-.0002844-.6921104-.1940786-.8694622-.5073933-.1773518-.3133146-.172592-.6977788.0124622-1.0066067 2.2900911-3.7257208 4.9045697-7.24203216 7.813-10.508.2370457-.2679492.5990342-.38908208.9496079-.31776907.3505736.07131302.636472.3242378.75.66350001.1135279.33926222.0374378.71331987-.1996079.98126906-2.8267773 3.17293708-5.3679716 6.5891937-7.594 10.209-.1814244.3027777-.5090312.4874841-.862.486z" fill="#9fc9d3"/><path id="Shape" d="m4 40.38c-.55228475 0-1-.4477153-1-1 0-3.308 2.217-7.268 4.076-10.007.20131916-.2954587.54497104-.4610712.90150532-.434453s.6717849.2414231.82700001.5635c.15521511.3220768.12681384.7024944-.07450533.997953-2.405 3.54-3.73 6.7-3.73 8.88 0 .5522847-.44771525 1-1 1z" fill="#ecf0f1"/><path id="Shape" d="m25 32c-.5522847 0-1-.4477153-1-1s-.4477153-1-1-1-1 .4477153-1 1-.4477153 1-1 1-1-.4477153-1-1c0-1.6568542 1.3431458-3 3-3s3 1.3431458 3 3c0 .5522847-.4477153 1-1 1z" fill="#35495e"/><path id="Shape" d="m37 32c-.5522847 0-1-.4477153-1-1s-.4477153-1-1-1-1 .4477153-1 1-.4477153 1-1 1-1-.4477153-1-1c0-1.6568542 1.3431458-3 3-3s3 1.3431458 3 3c0 .5522847-.4477153 1-1 1z" fill="#35495e"/><path id="Shape" d="m26 35h6v1c0 1.6568542-1.3431458 3-3 3s-3-1.3431458-3-3z" fill="#802d40"/><circle id="Oval" cx="19" cy="20" fill="#9fc9d3" r="1"/></g></g></svg>