<svg height="512" viewBox="0 0 58 47" width="512" xmlns="http://www.w3.org/2000/svg"><g id="Page-1" fill="none" fill-rule="evenodd"><g id="002---Cloud" fill-rule="nonzero"><path id="Shape" d="m50.44 34.89v.01c.2371087.6285579.3982513 1.2831996.48 1.95.0518646.3811634.078589.7653268.08 1.15 0 4.9705627-4.0294373 9-9 9h-29c-7.17970175 0-13-5.8202983-13-13s5.82029825-13 13-13c.16 0 .32 0 .48.01.0013232-.0109925-.002346-.0219999-.01-.03-.1621125-.6617706-.2823509-1.3331016-.36-2.01-.0723686-.6541856-.1090895-1.3118243-.11-1.97.0216266-9.0228022 7.0884303-16.45692499 16.0985661-16.93533928 9.0101357-.4784143 16.824449 6.1655607 17.8014339 15.13533928.0687531.597507.1021447 1.1985542.1 1.8.0016609.0734753-.0016802.1469784-.01.22.02 0 .04-.01.06-.01.641155-.1362081 1.2945455-.2065733 1.95-.21 4.7050005-.0196992 8.6311702 3.5879559 9.0086671 8.2778295.3774968 4.6898736-2.9210902 8.879063-7.5686671 9.6121705z" fill="#ecf0f1"/><g fill="#bdc3c7"><path id="Shape" d="m47 17c.0016609.0734753-.0016802.1469784-.01.22-.5366012.1351764-1.0564738.3297093-1.55.58-.1368422.0672443-.2875357.1014929-.44.1-.4608398-.0027311-.8601381-.3200462-.96688-.7683619-.1067418-.4483157.1067173-.9115255.51688-1.1216381.7070125-.3505901 1.4518712-.6190076 2.22-.8.0419991-.0132275.086472-.0166485.13-.01.0687531.597507.1021447 1.1985542.1 1.8z"/><path id="Shape" d="m40.948 21.939c-.3465502-.0003581-.6682099-.1801149-.8501201-.4750824s-.1981346-.6630901-.0428799-.9729176c.3227908-.6443867.7144066-1.2519275 1.168-1.812.2213984-.2879829.5815516-.4332592.9408019-.3794947s.6610932.2981135.7884821.638295.0602875.7226903-.175284.9991997c-.3622135.4485978-.6753329.934704-.934 1.45-.1697038.3386631-.5161967.552366-.895.552z"/><path id="Shape" d="m23.152 25.851c-.3037783.000114-.5911385-.1378631-.781-.375-.328376-.4106181-.6834802-.7991281-1.063-1.163-.2679064-.2449055-.3820693-.6157529-.2982774-.9689263.0837919-.3531735.3523801-.6332116.70175-.7316656.3493699-.0984541.7246575.0001367.9805274.2575919.4424053.4245304.8566197.8774939 1.24 1.356.2402269.3000432.2872243.7112192.1208985 1.0577313-.1663258.346512-.5165356.5670286-.9008985.5672687z"/><path id="Shape" d="m18.92 21.35c-.1516384.3748601-.515631.6201595-.92.62-.1338165-.0024296-.2660336-.0295511-.39-.08-1.3137582-.5507425-2.7163842-.8590492-4.14-.91-.1621125-.6617706-.2823509-1.3331016-.36-2.01 1.8142597.005767 3.6091923.3729123 5.28 1.08.243334.1013151.4361576.2955732.5356664.5396514s.0974691.5177806-.0056664.7603486z"/></g><circle id="Oval" cx="23" cy="13" fill="#35495e" r="3"/><circle id="Oval" cx="37" cy="13" fill="#35495e" r="3"/><path id="Shape" d="m30 22c-2.209139 0-4-1.790861-4-4 0-.5522847.4477153-1 1-1s1 .4477153 1 1c0 1.1045695.8954305 2 2 2s2-.8954305 2-2c0-.5522847.4477153-1 1-1s1 .4477153 1 1c0 2.209139-1.790861 4-4 4z" fill="#547580"/><path id="Shape" d="m13 44h-2c-.5522847 0-1-.4477153-1-1s.4477153-1 1-1h2c.5522847 0 1 .4477153 1 1s-.4477153 1-1 1z" fill="#a5a5a4"/><path id="Shape" d="m43 44h-26c-.5522847 0-1-.4477153-1-1s.4477153-1 1-1h26c.5522847 0 1 .4477153 1 1s-.4477153 1-1 1z" fill="#a5a5a4"/><circle id="Oval" cx="22" cy="12" fill="#ecf0f1" r="1"/><circle id="Oval" cx="36" cy="12" fill="#ecf0f1" r="1"/></g></g></svg>