<svg height="512" viewBox="0 0 58 58" width="512" xmlns="http://www.w3.org/2000/svg"><g id="Page-1" fill="none" fill-rule="evenodd"><g id="020---Cloudy" fill-rule="nonzero" transform="translate(-1)"><path id="Shape" d="m51 19c.0102804 1.8642723-.6060187 3.6779525-1.75 5.15-.4292389.547624-.9265869 1.0382511-1.48 1.46l-25.77 12.39h-9.79c-.5086018-.0014442-1.0164897-.0381992-1.52-.11-5.67195316-.9432867-9.79567499-5.9011153-9.69-11.65-.08384948-5.2312782 3.32508603-9.8787119 8.34-11.37-.38314033-.9921214-.57977078-2.0464675-.58-3.11-.10174354-4.38942999 3.370721-8.03193792 7.76-8.14 1.6337521.00010392 3.2220857.5377478 4.52 1.53 2.3758683-3.21775445 6.1302327-5.12643918 10.13-5.15 6.2877653.11955741 11.6066267 4.68337542 12.68 10.88 4.1297496.4403892 7.2357122 3.9677202 7.15 8.12z" fill="#95a5a5"/><path id="Shape" d="m49.25 24.15c-.4292389.547624-.9265869 1.0382511-1.48 1.46l-25.77 12.39h-9.79c-.5086018-.0014442-1.0164897-.0381992-1.52-.11 2.0369966-2.0893961 4.7034516-3.452485 7.59-3.88-.05-.52-.07-1.04-.07-1.54.1056052-7.4695766 5.159056-13.9604267 12.3746679-15.8945082 7.2156119-1.9340816 14.8379851 1.159125 18.6653321 7.5745082z" fill="#7f8c8d"/><path id="Shape" d="m52.483 47.694v.006c.2042103.5346848.3432132 1.0920397.414 1.66.0446854.3241068.0677364.6508297.069.978-.0269772 4.2583109-3.5006867 7.6885934-7.759 7.662h-25c-3.9882365.0536228-7.6966809-2.0433574-9.7064394-5.4886116-2.0097584-3.4452542-2.0097584-7.7055226 0-11.1507768 2.0097585-3.4452542 5.7182029-5.5422344 9.7064394-5.4886116.138 0 .276 0 .414.009.001221-.0095962-.0021077-.0192123-.009-.026-.1396169-.5628224-.2431608-1.133984-.31-1.71-.0627571-.5568044-.0944729-1.1166704-.095-1.677.105302-7.7225044 6.1823332-14.0396396 13.8949651-14.4439563 7.7126318-.4043168 14.4168605 5.2427907 15.3290349 12.9119563.0590251.5085091.0877425 1.0200797.086 1.532.0013495.0624404-.0013227.124903-.008.187.017 0 .034-.008.051-.008.552865-.1161904 1.1160647-.1761623 1.681-.179 4.0259101-.0537559 7.4055336 3.019937 7.7328731 7.0328774.3273396 4.0129404-2.5094724 7.5937142-6.4908731 8.1931226z" fill="#d1d4d1"/><g fill="#a5a5a4"><path id="Shape" d="m49.517 32.468c.0013495.0624404-.0013227.124903-.008.187-.4624568.1150643-.9108285.2807304-1.337.494-.1179825.0574831-.2477687.0865909-.379.085-.3259702.0018924-.625584-.1788025-.776-.468-.1001366-.2025582-.1155001-.4366515-.0426963-.6505598.0728039-.2139083.2277829-.3900253.4306963-.4894402.6101192-.2988281 1.2522456-.5272963 1.914-.681.0361802-.0113909.0744651-.0144673.112-.009.0590251.5085091.0877425 1.0200797.086 1.532z"/><path id="Shape" d="m44.3 36.671c-.1339233.0005003-.2661084-.0303201-.386-.09-.2035056-.099303-.3587076-.2760444-.4308782-.4906767-.0721705-.2146323-.0552851-.4492385.0468782-.6513233.279368-.5477073.6169865-1.0636904 1.007-1.539.3019479-.36566.8412937-.4217306 1.212-.126.1785251.1405066.2927815.3471222.316878.5730264.0240964.2259041-.0440071.4519714-.188878.6269736-.3121286.3812488-.5823491.7949611-.806 1.234-.1499195.2866302-.4475387.4653562-.771.463z"/><path id="Shape" d="m28.958 40c-.2611354.0003879-.5084697-.1172153-.673-.32-.2834638-.3492681-.5894491-.6796387-.916-.989-.1637324-.1550342-.2586202-.3691394-.2635046-.5945724s.0806409-.4434471.2375046-.6054276c.3318355-.3390006.8740781-.3496764 1.219-.024.381383.3606806.7384956.7461884 1.069 1.154.1442042.1757613.2113037.4023167.1860734.6282599-.0252303.2259431-.1406513.4321171-.3200734.5717401-.1546572.1181439-.3443922.1811543-.539.179z"/><path id="Shape" d="m25.31 36.17c-.1329244.3204267-.4460976.5289455-.793.528-.1151751-.002302-.2289933-.0253366-.336-.068-1.133945-.4690561-2.3426418-.7315218-3.569-.775-.1396169-.5628224-.2431608-1.133984-.31-1.71 1.5626247.0045581 3.1090525.3168339 4.551.919.2089161.0840547.3751491.2487464.4611461.4568705.085997.208124.0845024.4421209-.0041461.6491295z"/><path id="Shape" d="m46 55h-1c-.5522847 0-1-.4477153-1-1s.4477153-1 1-1h1c.5522847 0 1 .4477153 1 1s-.4477153 1-1 1z"/><path id="Shape" d="m41 55h-22c-.5522847 0-1-.4477153-1-1s.4477153-1 1-1h22c.5522847 0 1 .4477153 1 1s-.4477153 1-1 1z"/></g><circle id="Oval" cx="28" cy="29" fill="#35495e" r="3"/><circle id="Oval" cx="42" cy="29" fill="#35495e" r="3"/><path id="Shape" d="m35 37c-2.243 0-4-1.318-4-3 0-.5522847.4477153-1 1-1s1 .4477153 1 1c0 .408.779 1 2 1s2-.592 2-1c0-.5522847.4477153-1 1-1s1 .4477153 1 1c0 1.682-1.757 3-4 3z" fill="#3f5c6c"/><circle id="Oval" cx="27" cy="28" fill="#ecf0f1" r="1"/><circle id="Oval" cx="41" cy="28" fill="#ecf0f1" r="1"/></g></g></svg>