<svg height="512" viewBox="0 0 52 58" width="512" xmlns="http://www.w3.org/2000/svg"><g id="Page-1" fill="none" fill-rule="evenodd"><g id="018---Snowflake" fill-rule="nonzero"><path id="Shape" d="m51.2 43.35c-.2397251.5075711-.6810591.8915522-1.2169093 1.0587679s-1.1172398.1023823-1.6030907-.1787679l-1.06-.61-.08.38c-.1847528.9304235-1.0014109 1.600502-1.95 1.6-.1512794-.001826-.3020095-.0185737-.45-.05-1.0764994-.2806838-1.7359659-1.3650414-1.49-2.45l.32-1.59-1.57-.9c-.4292645-.2478003-.9755226-.1411093-1.28.25-2.9721771 3.7264294-7.238587 6.1970199-11.95 6.92-.4952352.0688584-.8653489.4900223-.87.99v1.79l1.53.51c.9932394.3085289 1.6046297 1.3047103 1.43 2.33-.1901074.9313325-1.0094628 1.600194-1.96 1.6-.2140313.0010239-.4268059-.0327499-.63-.1l-.37-.12v1.22c-.0002619.5897355-.2607843 1.1492934-.7119297 1.5291038-.4511453.3798104-1.0469189.5411513-1.6280703.4408962-.984296-.1994114-1.6838741-1.0759912-1.66-2.08v-1.11l-.37.12c-.5374871.1793208-1.1258823.1215092-1.6181906-.158992s-.8420347-.7572008-.9618094-1.311008c-.1960429-1.0364344.4205431-2.0540168 1.43-2.36l1.52-.51v-1.79c-.0046511-.4999777-.3747648-.9211416-.87-.99-2.1644675-.3189348-4.2542049-1.0234168-6.17-2.08-2.2286051-1.2140136-4.1934098-2.8592826-5.78-4.84-.3044774-.3911093-.8507355-.4978003-1.28-.25l-1.57.9.32 1.59c.20470563.9388877-.25750055 1.8963148-1.12 2.32-.11764054.0580934-.24187615.1017437-.37.13-.14799047.0314263-.29872061.048174-.45.05-.63716279.0024127-1.23501884-.3077252-1.6-.83-.17783605-.2242093-.29800851-.4885887-.35-.77l-.08-.38-1.06.61c-.01 0-.01.01-.02.01-.29979178.1672368-.6367335.2566295-.98.26-.77776845.0000424-1.48611925-.4475419-1.82-1.15-.06657732-.1508845-.11686206-.3084433-.15-.47-.12020049-.8740116.30346723-1.7332255 1.07-2.17l.96-.55-.29-.26c-.44062198-.3915134-.68686353-.9569267-.67338331-1.5462048.01348022-.5892782.28531924-1.14284.74338331-1.5137952.80355817-.6037057 1.9242538-.5447218 2.66.14l1.21 1.07 1.56-.9c.42810907-.2568771.60614126-.7867348.42-1.25-1.74664231-4.4341979-1.74664231-9.3658021 0-13.8.18614126-.4632652.00810907-.9931229-.42-1.25l-1.56-.9-1.29 1.14c-.36185209.3272886-.83209251.5089724-1.32.51-.60491856.0009041-1.17800984-.2709469-1.56-.74-.65723645-.88879-.51294823-2.1349156.33-2.85l.19-.17-1.06-.61c-.51296211-.2924909-.86972094-.7974894-.97399174-1.3787025-.10427079-.5812131.05469399-1.1787334.43399174-1.6312975.66361687-.7535662 1.77235101-.922195 2.63-.4l.97.56.08-.38c.11666829-.577483.48201712-1.0741492.99856522-1.3574797s1.131741-.3244987 1.68143478-.1125203c.92530455.3865717 1.43965411 1.3815429 1.22 2.36l-.33 1.6 1.57.9c.4292645.2478003.9755226.1411093 1.28-.25 2.9721771-3.7264294 7.238587-6.1970199 11.95-6.92.4952352-.0688584.8653489-.49002228.87-.99v-1.79l-1.63-.54c-.5605466-.18447452-1.0110115-.60708484-1.2308419-1.15473247-.2198304-.54764764-.186584-1.16442378.0908419-1.68526753.5044127-.87292521 1.5609434-1.26017948 2.51-.92l.26.08v-1.22c.0002619-.58973553.2607843-1.14929345.7119297-1.52910385.4511453-.3798104 1.0469189-.54115126 1.6280703-.44089615.984296.19941143 1.6838741 1.07599123 1.66 2.08v1.11l.37-.12c.5374871-.17932079 1.1258823-.12150923 1.6181906.158992s.8420347.75720081.9618094 1.311008c.1960429 1.03643437-.4205431 2.05401677-1.43 2.36l-1.52.51v1.79c.0046511.49997772.3747648.9211416.87.99 3.5500236.5407272 6.8728109 2.0807246 9.58 4.44.8576749.7592345 1.6504311 1.5887852 2.37 2.48.3044774.3911093.8507355.4978003 1.28.25l1.57-.9-.34-1.69c-.1160979-.5545693.0095798-1.1323354.345551-1.5885691.3359713-.4562337.8504095-.7477159 1.414449-.8014309 1.0525971-.0680573 1.989495.6625511 2.18 1.7l.05.27 1.06-.61c.490028-.2849437 1.0779535-.3485632 1.6175923-.1750397.5396388.1735234.980297.5678888 1.2124077 1.0850397.3981239.9774553.0030554 2.0982477-.92 2.61l-.97.55.19.18c.8448901.7098147.9896196 1.9553655.33 2.84-.3819902.4690531-.9550814.7409041-1.56.74-.4879075-.0010276-.9581479-.1827114-1.32-.51l-1.29-1.14-1.56.9c-.4281091.2568771-.6061413.7867348-.42 1.25 1.7466423 4.4341979 1.7466423 9.3658021 0 13.8-.1861413.4632652-.0081091.9931229.42 1.25l1.56.9 1.29-1.14c.438983-.3931496 1.0297658-.5712809 1.6129075-.4863199.5831418.0849611 1.0985377.4242576 1.4070925.9263199.512005.8656625.3215063 1.974788-.45 2.62l-.21.19.96.55c.9389947.5132731 1.3366296 1.6543124.92 2.64z" fill="#84b5cb"/><path id="Shape" d="m38.45 14.66c-2.7071891-2.3592754-6.0299764-3.8992728-9.58-4.44-.4952352-.0688584-.8653489-.49002228-.87-.99v-1.79l1.52-.51c1.0094569-.30598323 1.6260429-1.32356563 1.43-2.36-.1197747-.55380719-.4695011-1.03050677-.9618094-1.311008s-1.0807035-.33831279-1.6181906-.158992l-.37.12v-1.11c.0238741-1.00400877-.675704-1.88058857-1.66-2.08-.5811514-.10025511-1.176925.06108575-1.6280703.44089615-.4511454.3798104-.7116678.93936832-.7119297 1.52910385v1.22l-.26-.08c-.9490566-.34017948-2.0055873.04707479-2.51.92-.2774259.52084375-.3106723 1.13761989-.0908419 1.68526753.2198304.54764763.6702953.97025795 1.2308419 1.15473247l1.63.54v1.79c-.0046511.49997772-.3747648.9211416-.87.99-4.711413.7229801-8.9778229 3.1935706-11.95 6.92-.3044774.3911093-.8507355.4978003-1.28.25l-1.57-.9.33-1.6c.21965411-.9784571-.29469545-1.9734283-1.22-2.36-.54969378-.2119784-1.16488668-.1708102-1.68143478.1125203s-.88189693.7799967-.99856522 1.3574797l-.08.38-.97-.56c-.85764899-.522195-1.96638313-.3535662-2.63.4-.37929775.4525641-.53826253 1.0500844-.43399174 1.6312975.1042708.5812131.46102963 1.0862116.97399174 1.3787025l1.06.61-.19.17c-.84294823.7150844-.98723645 1.96121-.33 2.85.38199016.4690531.95508144.7409041 1.56.74.48790749-.0010276.95814791-.1827114 1.32-.51l1.29-1.14 1.56.9c.42810907.2568771.60614126.7867348.42 1.25-1.74664231 4.4341979-1.74664231 9.3658021 0 13.8.18614126.4632652.00810907.9931229-.42 1.25l-1.56.9-1.21-1.07c-.7357462-.6847218-1.85644183-.7437057-2.66-.14-.45806407.3709552-.72990309.924517-.74338331 1.5137952-.01348022.5892781.23276133 1.1546914.67338331 1.5462048l.29.26-.96.55c-.76653277.4367745-1.19020049 1.2959884-1.07 2.17.03313794.1615567.08342268.3191155.15.47.33388075.7024581 1.04223155 1.1500424 1.82 1.15.3432665-.0033705.68020822-.0927632.98-.26.01 0 .01-.01.02-.01l1.06-.61.08.38c.05199149.2814113.17216395.5457907.35.77.36498116.5222748.96283721.8324127 1.6.83.15127939-.001826.30200953-.0185737.45-.05.12812385-.0282563.25235946-.0719066.37-.13.86249945-.4236852 1.32470563-1.3811123 1.12-2.32l-.32-1.59 1.57-.9c.4292645-.2478003.9755226-.1411093 1.28.25 1.5865902 1.9807174 3.5513949 3.6259864 5.78 4.84 7.0538407-1.0929999 13.3491294-5.0352843 17.4122594-10.9040398s5.5374105-13.1487805 4.0777406-20.1359602z" fill="#9fc9d3"/><g fill="#ecf0f1"><path id="Shape" d="m12.789 22.887c-.3519796-.0003469-.6778583-.185714-.8580452-.4880755-.1801869-.3023614-.1881454-.6771874-.0209548-.9869245 1.8764893-3.4859543 4.9787234-6.1524433 8.707-7.484.5202522-.1855677 1.0924323.0857478 1.278.606.1855676.5202522-.0857478 1.0924323-.606 1.278-3.2626338 1.1654013-5.9772694 3.4991542-7.619 6.55-.1747426.3237289-.5131207.525373-.881.525z"/><circle id="Oval" cx="26" cy="14" r="1"/><circle id="Oval" cx="17.5" cy="28" r="3.5"/><circle id="Oval" cx="34.5" cy="28" r="3.5"/></g><path id="Shape" d="m26 35c-3.164 0-4-1.962-4-3-.0066274-.5522847.4357153-1.0053726.988-1.012s1.0053726.4357153 1.012.988c.013.18.174 1.024 2 1.024 1.841 0 1.989-.857 2-1.029.032893-.5302645.4687671-.9456525 1-.953h.031c.5368037.0081829.9679712.4451349.969.982 0 1.038-.836 3-4 3z" fill="#802d40"/><circle id="Oval" cx="18" cy="28" fill="#547580" r="2"/><circle id="Oval" cx="34" cy="28" fill="#547580" r="2"/><circle id="Oval" cx="17" cy="27" fill="#ecf0f1" r="1"/><circle id="Oval" cx="33" cy="27" fill="#ecf0f1" r="1"/></g></g></svg>